<svg width="26" height="24" viewBox="0 0 26 24" fill="none" xmlns="http://www.w3.org/2000/svg">
<path d="M24.3014 10.4685C25.2448 10.4685 25.6387 9.25314 24.8723 8.6929L13.2126 0.188277C13.0461 0.0659484 12.8451 0 12.6387 0C12.4322 0 12.2312 0.0659484 12.0647 0.188277L0.404977 8.6929C-0.361346 9.25008 0.0325011 10.4685 0.978955 10.4685H1.86881C2.42109 10.4685 2.86881 10.9162 2.86881 11.4685V20.9182C2.86881 21.4705 2.4211 21.9182 1.86881 21.9182H0.670594C0.536259 21.9182 0.426348 22.0284 0.426348 22.1631V23.7551C0.426348 23.8898 0.536259 24 0.670594 24H24.6067C24.7411 24 24.851 23.8898 24.851 23.7551V22.1631C24.851 22.0284 24.7411 21.9182 24.6067 21.9182H23.4085C22.8562 21.9182 22.4085 21.4705 22.4085 20.9182V11.4685C22.4085 10.9162 22.8562 10.4685 23.4085 10.4685H24.3014ZM12.0494 2.7764C12.4005 2.5203 12.8768 2.5203 13.228 2.7764L18.4369 6.57578C19.2188 7.14608 18.8154 8.3837 17.8476 8.3837H7.42972C6.46194 8.3837 6.05854 7.14608 6.84042 6.57578L12.0494 2.7764ZM5.06703 11.4685C5.06703 10.9162 5.51474 10.4685 6.06703 10.4685H7.63913C8.19141 10.4685 8.63913 10.9162 8.63913 11.4685V20.9182C8.63913 21.4705 8.19141 21.9182 7.63913 21.9182H6.06703C5.51474 21.9182 5.06703 21.4705 5.06703 20.9182V11.4685ZM10.8373 11.4685C10.8373 10.9162 11.2851 10.4685 11.8373 10.4685H13.4094C13.9617 10.4685 14.4094 10.9162 14.4094 11.4685V20.9182C14.4094 21.4705 13.9617 21.9182 13.4094 21.9182H11.8373C11.2851 21.9182 10.8373 21.4705 10.8373 20.9182V11.4685ZM20.2103 20.9182C20.2103 21.4705 19.7626 21.9182 19.2103 21.9182H17.6077C17.0554 21.9182 16.6077 21.4705 16.6077 20.9182V11.4685C16.6077 10.9162 17.0554 10.4685 17.6077 10.4685H19.2103C19.7626 10.4685 20.2103 10.9162 20.2103 11.4685V20.9182Z" fill="#F37135"/>
</svg>
