<svg width="24" height="24" viewBox="0 0 24 24" fill="none" xmlns="http://www.w3.org/2000/svg">
<path d="M10.7706 19.2H13.164V16.8H10.7706V19.2ZM11.9673 0C5.36135 0 0 5.376 0 12C0 18.624 5.36135 24 11.9673 24C18.5733 24 23.9346 18.624 23.9346 12C23.9346 5.376 18.5733 0 11.9673 0ZM11.9673 21.6C6.68972 21.6 2.39346 17.292 2.39346 12C2.39346 6.708 6.68972 2.4 11.9673 2.4C17.2449 2.4 21.5411 6.708 21.5411 12C21.5411 17.292 17.2449 21.6 11.9673 21.6ZM11.9673 4.8C9.32253 4.8 7.18038 6.948 7.18038 9.6H9.57384C9.57384 8.28 10.6509 7.2 11.9673 7.2C13.2837 7.2 14.3608 8.28 14.3608 9.6C14.3608 12 10.7706 11.7 10.7706 15.6H13.164C13.164 12.9 16.7542 12.6 16.7542 9.6C16.7542 6.948 14.6121 4.8 11.9673 4.8Z" fill="#F37135"/>
</svg>
