<svg width="24" height="24" viewBox="0 0 24 24" fill="none" xmlns="http://www.w3.org/2000/svg">
<path d="M12.2768 5.33024H10.9382C10.8157 5.33024 10.7155 5.4307 10.7155 5.55349V13.2363C10.7155 13.3088 10.7489 13.3758 10.8074 13.4177L15.4078 16.786C15.508 16.8586 15.6472 16.8391 15.7195 16.7386L16.5155 15.6502C16.5906 15.547 16.5684 15.4074 16.4682 15.3377L12.4995 12.4605V5.55349C12.4995 5.4307 12.3993 5.33024 12.2768 5.33024ZM18.3941 7.42884L22.758 8.49768C22.8971 8.53117 23.0335 8.42512 23.0335 8.28279L23.0558 3.77582C23.0558 3.58884 22.8415 3.48279 22.6967 3.6L18.3106 7.03535C18.2774 7.06107 18.2522 7.09564 18.2378 7.1351C18.2234 7.17455 18.2203 7.21729 18.229 7.2584C18.2378 7.2995 18.2579 7.33731 18.2871 7.36746C18.3163 7.39761 18.3534 7.41889 18.3941 7.42884ZM23.0613 15.8316L21.4833 15.2874C21.4283 15.2685 21.3681 15.272 21.3156 15.297C21.263 15.322 21.2223 15.3667 21.2022 15.4214C21.1493 15.5637 21.0937 15.7033 21.0352 15.8428C20.5398 17.0177 19.8302 18.0753 18.9229 18.9823C18.0257 19.8848 16.9623 20.6041 15.7919 21.1005C14.5794 21.6145 13.276 21.8784 11.9596 21.8763C10.6293 21.8763 9.34068 21.6167 8.12725 21.1005C6.95679 20.6041 5.89349 19.8848 4.99627 18.9823C4.09177 18.0753 3.38208 17.0177 2.8839 15.8428C2.37409 14.6263 2.11289 13.3196 2.11577 12C2.11577 10.666 2.3746 9.37117 2.88947 8.15442C3.38486 6.97954 4.09455 5.92186 5.00184 5.01489C5.89905 4.11243 6.96236 3.39309 8.13282 2.89675C9.34068 2.38047 10.632 2.12093 11.9624 2.12093C13.2927 2.12093 14.5812 2.38047 15.7947 2.89675C16.9651 3.39309 18.0284 4.11243 18.9257 5.01489C19.2095 5.30233 19.4767 5.60093 19.7216 5.91628L21.3859 4.61024C19.1956 1.80279 15.7863 -0.00278747 11.9568 3.23034e-06C5.28849 0.00279393 -0.0661761 5.43349 0.000618159 12.1228C0.0674124 18.6949 5.39704 24 11.9624 24C17.125 24 21.5223 20.7181 23.1977 16.1219C23.2394 16.0047 23.1782 15.8735 23.0613 15.8316Z" fill="#F37135"/>
</svg>
