<svg width="24" height="24" viewBox="0 0 24 24" fill="none" xmlns="http://www.w3.org/2000/svg">
<path d="M2.6594 7.32062C2.6594 4.75031 4.74305 2.66667 7.31335 2.66667H10.634C11.3703 2.66667 11.9673 2.06971 11.9673 1.33333C11.9673 0.596954 11.3703 0 10.634 0H5.98365C2.67897 0 0 2.67897 0 5.98365V18.0163C0 21.321 2.67897 24 5.98365 24H10.634C11.3703 24 11.9673 23.403 11.9673 22.6667C11.9673 21.9303 11.3703 21.3333 10.634 21.3333H7.31335C4.74304 21.3333 2.6594 19.2497 2.6594 16.6794V7.32062Z" fill="#D90429"/>
<path d="M23.2304 12.7061C23.6196 12.3158 23.6196 11.6842 23.2304 11.2938L20.3239 8.37939C19.6943 7.7481 18.6158 8.19397 18.6158 9.08554V9.66666C18.6158 10.2189 18.1681 10.6667 17.6158 10.6667H8.97819C8.42591 10.6667 7.97819 11.1144 7.97819 11.6667V12.3333C7.97819 12.8856 8.42591 13.3333 8.97819 13.3333H17.6158C18.1681 13.3333 18.6158 13.781 18.6158 14.3333V14.9144C18.6158 15.806 19.6943 16.2519 20.3239 15.6206L23.2304 12.7061Z" fill="#D90429"/>
</svg>
