<svg width="20" height="24" viewBox="0 0 20 24" fill="none" xmlns="http://www.w3.org/2000/svg">
<path d="M9.81933 24C10.4698 24 11.0633 23.7429 11.5038 23.325C12.3051 22.5647 11.3787 21.5385 10.2742 21.5385H9.36449C8.25992 21.5385 7.33358 22.5647 8.13486 23.325C8.57531 23.7429 9.16883 24 9.81933 24ZM17.7677 17.2008C17.3938 16.8259 17.1838 16.318 17.1838 15.7886V10.4615C17.1838 7.10619 15.6061 4.23611 12.7859 3.04933C12.146 2.78005 11.6604 2.19298 11.6604 1.49871C11.6604 0.670997 10.9895 0 10.1617 0H9.47745C8.64944 0 7.9782 0.671236 7.9782 1.49925C7.9782 2.19332 7.49309 2.78038 6.85351 3.04996C4.04129 4.23534 2.45483 7.09624 2.45483 10.4615V15.7886C2.45483 16.318 2.24487 16.8259 1.87097 17.2008L0.254205 18.822C0.0914166 18.9853 0 19.2064 0 19.4369C0 19.9178 0.38986 20.3077 0.870778 20.3077H18.7679C19.2488 20.3077 19.6387 19.9178 19.6387 19.4369C19.6387 19.2064 19.5472 18.9853 19.3844 18.822L17.7677 17.2008ZM14.729 15.8462C14.729 16.9507 13.8336 17.8462 12.729 17.8462H6.90966C5.80509 17.8462 4.90966 16.9507 4.90966 15.8462V10.4615C4.90966 7.40923 6.76306 4.92308 9.81933 4.92308C12.8756 4.92308 14.729 7.40923 14.729 10.4615V15.8462Z" fill="#F37135"/>
</svg>
