<svg width="19" height="19" viewBox="0 0 19 19" fill="none" xmlns="http://www.w3.org/2000/svg">
<mask id="path-1-inside-1_23_43" fill="white">
<path d="M18 10C18 11.78 17.4722 13.5201 16.4832 15.0001C15.4943 16.4802 14.0887 17.6337 12.4442 18.3149C10.7996 18.9961 8.99002 19.1743 7.24419 18.8271C5.49836 18.4798 3.89471 17.6226 2.63604 16.364C1.37737 15.1053 0.520199 13.5016 0.172932 11.7558C-0.174335 10.01 0.00389552 8.20038 0.685084 6.55585C1.36627 4.91131 2.51983 3.50571 3.99987 2.51677C5.47991 1.52784 7.21997 1 9 1V10H18Z"/>
</mask>
<path d="M18 10C18 11.78 17.4722 13.5201 16.4832 15.0001C15.4943 16.4802 14.0887 17.6337 12.4442 18.3149C10.7996 18.9961 8.99002 19.1743 7.24419 18.8271C5.49836 18.4798 3.89471 17.6226 2.63604 16.364C1.37737 15.1053 0.520199 13.5016 0.172932 11.7558C-0.174335 10.01 0.00389552 8.20038 0.685084 6.55585C1.36627 4.91131 2.51983 3.50571 3.99987 2.51677C5.47991 1.52784 7.21997 1 9 1V10H18Z" fill="white" stroke="#7D756C" stroke-width="4" mask="url(#path-1-inside-1_23_43)"/>
<mask id="path-2-inside-2_23_43" fill="white">
<path d="M10 0C11.1819 1.4094e-08 12.3522 0.232792 13.4442 0.685084C14.5361 1.13738 15.5282 1.80031 16.364 2.63604C17.1997 3.47177 17.8626 4.46392 18.3149 5.55585C18.7672 6.64778 19 7.8181 19 9L10 9V0Z"/>
</mask>
<path d="M10 0C11.1819 1.4094e-08 12.3522 0.232792 13.4442 0.685084C14.5361 1.13738 15.5282 1.80031 16.364 2.63604C17.1997 3.47177 17.8626 4.46392 18.3149 5.55585C18.7672 6.64778 19 7.8181 19 9L10 9V0Z" fill="white" stroke="#7D756C" stroke-width="4" mask="url(#path-2-inside-2_23_43)"/>
</svg>
