<svg width="20" height="20" viewBox="0 0 20 20" fill="none" xmlns="http://www.w3.org/2000/svg">
<path d="M8.55249 17.105C10.1538 17.1047 11.7162 16.6522 13.0633 15.8084C13.4916 15.5402 14.0562 15.569 14.4136 15.9263L17.7802 19.2929C18.1707 19.6834 18.8039 19.6834 19.1944 19.2929L19.2918 19.1955C19.6824 18.8049 19.6824 18.1718 19.2918 17.7812L15.9254 14.4148C15.568 14.0574 15.5393 13.4926 15.8076 13.0643C16.6519 11.717 17.1046 10.1543 17.105 8.55249C17.105 3.83686 13.2681 0 8.55249 0C3.83686 0 0 3.83686 0 8.55249C0 13.2681 3.83686 17.105 8.55249 17.105ZM8.55249 2.13812C12.09 2.13812 14.9669 5.01497 14.9669 8.55249C14.9669 12.09 12.09 14.9669 8.55249 14.9669C5.01497 14.9669 2.13812 12.09 2.13812 8.55249C2.13812 5.01497 5.01497 2.13812 8.55249 2.13812Z" fill="#6C757D"/>
</svg>
