<svg width="20" height="24" viewBox="0 0 20 24" fill="none" xmlns="http://www.w3.org/2000/svg">
<path d="M10.6056 0.362824C10.0874 0.131889 9.49549 0.131889 8.9773 0.362824L1.18587 3.83514C0.464613 4.15658 0 4.8723 0 5.66194V10.9091C0 16.7923 3.94458 22.3047 9.31836 23.8731C9.6272 23.9632 9.95566 23.9632 10.2645 23.8731C15.6383 22.3047 19.5829 16.7923 19.5829 10.9091V5.66194C19.5829 4.8723 19.1182 4.15658 18.397 3.83514L10.6056 0.362824ZM9.79143 9.98909C9.79143 11.0937 10.6869 11.9891 11.7914 11.9891H15.134C16.3396 11.9891 17.2812 13.0565 16.9172 14.2058C16.0829 16.8395 14.4151 19.1412 12.2338 20.5792C11.1089 21.3208 9.79143 20.3753 9.79143 19.028V14C9.79143 12.8954 8.896 12 7.79143 12H4.17587C3.0713 12 2.17587 11.1046 2.17587 10V7.08031C2.17587 6.29057 2.6406 5.57478 3.36199 5.25341L6.97754 3.64268C8.30029 3.05339 9.79143 4.02151 9.79143 5.46958V9.98909Z" fill="#F37135"/>
</svg>
