<svg width="22" height="24" viewBox="0 0 22 24" fill="none" xmlns="http://www.w3.org/2000/svg">
<path d="M19.145 0H1.99727C0.892705 0 -0.00272369 0.895431 -0.00272369 2V22C-0.00272369 23.1046 0.892707 24 1.99728 24H10.7646C11.4273 24 11.9646 23.4627 11.9646 22.8C11.9646 22.1373 11.4273 21.6 10.7646 21.6H4.39074C3.28617 21.6 2.39074 20.7046 2.39074 19.6V4.4C2.39074 3.29543 3.28617 2.4 4.39074 2.4H17.145C18.2495 2.4 19.145 3.29543 19.145 4.4V13.2033C19.145 13.8642 19.6808 14.4 20.3417 14.4C21.0026 14.4 21.5384 13.8642 21.5384 13.2033V2C21.5384 0.895432 20.643 0 19.5384 0H19.145ZM16.7515 6C16.7515 5.33726 16.2142 4.8 15.5515 4.8H5.9842C5.32146 4.8 4.7842 5.33726 4.7842 6C4.7842 6.66274 5.32146 7.2 5.9842 7.2H15.5515C16.2142 7.2 16.7515 6.66274 16.7515 6ZM4.7842 10.8C4.7842 10.1373 5.32146 9.6 5.9842 9.6H15.5515C16.2142 9.6 16.7515 10.1373 16.7515 10.8C16.7515 11.4627 16.2142 12 15.5515 12H5.9842C5.32146 12 4.7842 11.4627 4.7842 10.8ZM11.9646 15.6C11.9646 14.9373 11.4273 14.4 10.7646 14.4H5.9842C5.32146 14.4 4.7842 14.9373 4.7842 15.6C4.7842 16.2627 5.32146 16.8 5.9842 16.8H10.7646C11.4273 16.8 11.9646 16.2627 11.9646 15.6ZM19.145 20.4C19.145 19.7391 18.6092 19.2 17.9482 19.2C17.2873 19.2 16.7515 18.6609 16.7515 18C16.7515 17.3391 16.2157 16.8 15.5548 16.8C14.8938 16.8 14.358 17.3391 14.358 18C14.358 18.6609 14.8938 19.2 15.5548 19.2C16.2157 19.2 16.7515 19.7391 16.7515 20.4C16.7515 21.0609 16.2157 21.6 15.5548 21.6C14.8938 21.6 14.358 22.1391 14.358 22.8C14.358 23.4609 14.8938 24 15.5548 24C16.2157 24 16.7515 23.4609 16.7515 22.8C16.7515 22.1391 17.2873 21.6 17.9482 21.6C18.6092 21.6 19.145 22.1391 19.145 22.8C19.145 23.4609 19.6808 24 20.3417 24C21.0026 24 21.5384 23.4609 21.5384 22.8C21.5384 22.1391 21.0026 21.6 20.3417 21.6C19.6808 21.6 19.145 21.0609 19.145 20.4ZM19.145 18C19.145 18.6609 19.6808 19.2 20.3417 19.2C21.0026 19.2 21.5384 18.6609 21.5384 18C21.5384 17.3391 21.0026 16.8 20.3417 16.8C19.6808 16.8 19.145 17.3391 19.145 18Z" fill="#F37135"/>
</svg>
