<svg width="28" height="38" viewBox="0 0 28 38" fill="none" xmlns="http://www.w3.org/2000/svg">
<path d="M22.2748 7.00849C23.3349 7.20243 23.7875 8.47126 23.0895 9.29239L18.3779 14.835C17.6799 15.6561 16.3547 15.4137 15.9926 14.3986L13.5484 7.54695C13.1863 6.53188 14.0588 5.50547 15.1189 5.69941L22.2748 7.00849Z" fill="white"/>
<rect x="17.5021" y="8.51196" width="2.8" height="15.0029" rx="1.4" transform="rotate(70.367 17.5021 8.51196)" fill="white"/>
<path d="M5.20251 30.8648C4.14239 30.6709 3.68975 29.402 4.38777 28.5809L9.0994 23.0383C9.79742 22.2172 11.1226 22.4596 11.4847 23.4746L13.9289 30.3263C14.291 31.3414 13.4185 32.3678 12.3584 32.1739L5.20251 30.8648Z" fill="white"/>
<rect x="9.97351" y="29.362" width="2.8" height="15.0003" rx="1.4" transform="rotate(-109.633 9.97351 29.362)" fill="white"/>
</svg>
